<svg width="2000" height="1024" viewBox="0 0 2000 1024" fill="none" xmlns="http://www.w3.org/2000/svg">
<g clip-path="url(#clip0_549_1507)">
<path d="M12.146 0.25C18.727 0.25 24.146 5.67 24.146 12.25C24.146 18.88 18.727 24.25 12.146 24.25C5.517 24.25 0.145996 18.88 0.145996 12.25C0.145996 5.67 5.517 0.25 12.146 0.25ZM17.663 8.428C17.7117 8.27034 17.7117 8.10166 17.663 7.944C17.663 7.847 17.566 7.702 17.517 7.654C17.372 7.509 17.13 7.509 17.034 7.509C16.598 7.509 15.872 7.75 12.534 9.154C11.372 9.638 9.05 10.605 5.566 12.154C4.986 12.396 4.695 12.589 4.646 12.831C4.598 13.218 5.227 13.363 5.953 13.605C6.582 13.799 7.405 14.041 7.84 14.041C8.227 14.041 8.663 13.896 9.146 13.557C12.388 11.331 14.082 10.218 14.179 10.218C14.275 10.218 14.372 10.17 14.421 10.218C14.518 10.315 14.518 10.412 14.469 10.46C14.421 10.702 11.372 13.509 11.179 13.702C10.501 14.38 9.727 14.815 10.937 15.589C11.953 16.267 12.534 16.702 13.598 17.379C14.275 17.815 14.808 18.347 15.485 18.299C15.824 18.25 16.163 17.96 16.308 17.041C16.743 14.961 17.518 10.315 17.663 8.428Z" fill="black"/>
</g>
<path d="M18.804 11.184C20.471 11.184 21.727 10.489 22.652 9.27898L21.415 8.33598C21.1093 8.7384 20.7144 9.06437 20.2613 9.28822C19.8082 9.51207 19.3094 9.62769 18.804 9.62598C16.994 9.62598 15.683 8.15198 15.683 6.34298C15.683 4.53398 16.973 2.97698 18.855 2.97698C19.692 2.97698 20.284 3.17398 20.8 3.49398V5.08398H22.356V2.76598L22.058 2.53198C21.202 1.85798 19.895 1.50098 18.803 1.50098C17.519 1.5023 16.2879 2.01297 15.3799 2.92092C14.472 3.82887 13.9613 5.05994 13.96 6.34398C13.9621 7.62767 14.4733 8.85812 15.3814 9.76545C16.2894 10.6728 17.5203 11.1829 18.804 11.184ZM22.034 20.735L21.978 18.506V13.066H18.731V14.623H20.338V18.314C20.338 19.904 19.124 21.03 17.898 21.03C16.674 21.03 16.034 20.18 16.034 18.591V13.065H13.001V14.622H14.395V18.861C14.395 21.018 15.604 22.504 17.761 22.504C19.001 22.504 19.945 21.816 20.508 20.756H20.533L20.755 22.239H23.25V20.737H22.036V20.734L22.034 20.735ZM13.602 1.72798H10.896L8.543 8.56198H8.506L6.166 1.72798H3.281V3.28598H4.903L7.693 11.076H9.176V11.073L12.086 3.28698H13.6V1.72998L13.602 1.72798ZM0.75 22.258H2.353V20.656H0.751V22.259L0.75 22.258ZM6.942 14.872H6.924L6.824 13.066H3.962V14.486H5.484V20.736H3.962V22.238H11.034V20.766H7.097V16.993C7.275 15.628 8.298 14.462 9.695 14.462H9.721L9.692 15.858H11.249V13.04H10.019C8.609 13.036 7.564 13.799 6.942 14.872Z" fill="black"/>
<path d="M18.901 1H22.581L14.541 10.19L24 22.693H16.594L10.794 15.109L4.156 22.693H0.474L9.074 12.863L0 1H7.594L12.837 7.932L18.901 1ZM17.61 20.491H19.649L6.486 3.087H4.298L17.61 20.491Z" fill="black"/>
<path d="M47.522 14.4C47.522 14.4 47.053 11.09 45.609 9.63797C43.781 7.72497 41.737 7.71597 40.8 7.60297C34.088 7.11597 24.01 7.11597 24.01 7.11597H23.99C23.99 7.11597 13.913 7.11597 7.2 7.60297C6.262 7.71597 4.219 7.72497 2.39 9.63797C0.948 11.09 0.488 14.4 0.488 14.4C0.488 14.4 0 18.29 0 22.172V25.809C0 29.691 0.478 33.581 0.478 33.581C0.478 33.581 0.947 36.891 2.381 38.344C4.209 40.256 6.609 40.191 7.678 40.397C11.522 40.763 24 40.875 24 40.875C24 40.875 34.087 40.856 40.8 40.378C41.738 40.266 43.781 40.256 45.61 38.344C47.053 36.891 47.522 33.581 47.522 33.581C47.522 33.581 48 29.701 48 25.81V22.173C48 18.292 47.522 14.401 47.522 14.401V14.4ZM19.04 30.225V16.735L32.005 23.503L19.04 30.225Z" fill="black"/>
<defs>
<clipPath id="clip0_549_1507">
<rect width="25" height="25" fill="white"/>
</clipPath>
</defs>
</svg>
